# xmcd
#
# Track frame offsets:
#	150
#	16403
#	32596
#	49040
#	61964
#	77335
#	92892
#	105898
#	119645
#	135345
#	154920
#	171903
#	190960
#	207431
#	225306
#	239042
#	252431
#	268856
#	287345
#	305275
#	323220
#	341041
#
# Disc length: 4724 seconds
#
# Revision: 2
# Processed by: cddbd v1.5.2PL0 Copyright (c) Steve Scherf et al.
# Submitted via: EasyCDDAExtractor 11.1.0.1
#
DISCID=30127216
DTITLE=Various Artist - CDX Volume 442
DYEAR=2008
DGENRE=Country
TTITLE0=Robert Plant and Alison Krauss - Gone Gone Gone Done Moved On
TTITLE1=Leann Rimes - Good Friend And A Glass Of Wine
TTITLE2=Phil Stacey - If You Didn't Love Me
TTITLE3=Jodee Messina - I'm Done
TTITLE4=George Strait - I Saw God Today
TTITLE5=Clint Black - Long Cool Woman
TTITLE6=Taylor Swift - Picture To Burn
TTITLE7=Emily West - Rocks In Your SHoes
TTITLE8=Kristina Cornell - That's The Way It Feels
TTITLE9=Dan Colehour - The Likes Of Us
TTITLE10=Mica Roberts and Toby Keith - THings A Mama Don't Know
TTITLE11=Crossin Dixon - I Love My Old Bird Dog
TTITLE12=Marshall Tucker Band - I Love You That Way
TTITLE13=Bluefield - Butterfly
TTITLE14=Lucas - Ain't It Beautiful
TTITLE15=Judy Wright - Beautiful Rainy Night
TTITLE16=Todd Eliott - I'm Gonna Live
TTITLE17=Kenny Milam - I Threw Away My Rose
TTITLE18=Calvin Ray - Say Hello To Heaven
TTITLE19=Buck Audra - The Streets Of My Town
TTITLE20=Randolph Scott Aoens - Walking On The Moon
TTITLE21=JR and the Roadkill Choir - You're Too Ugly To Be Cheatin' On Me
EXTD=
EXTT0=
EXTT1=
EXTT2=
EXTT3=
EXTT4=
EXTT5=
EXTT6=
EXTT7=
EXTT8=
EXTT9=
EXTT10=
EXTT11=
EXTT12=
EXTT13=
EXTT14=
EXTT15=
EXTT16=
EXTT17=
EXTT18=
EXTT19=
EXTT20=
EXTT21=
PLAYORDER=
